<?xml version="1.0" encoding="UTF-8"?>
<svg width="866px" height="545px" viewBox="0 0 866 545" version="1.1" xmlns="http://www.w3.org/2000/svg" xmlns:xlink="http://www.w3.org/1999/xlink">
    <!-- Generator: Sketch 51.2 (57519) - http://www.bohemiancoding.com/sketch -->
    <title>Logo</title>
    <desc>Created with Sketch.</desc>
    <defs></defs>
    <g id="Page-1" stroke="none" stroke-width="1" fill="none" fill-rule="evenodd">
        <g id="Logo" transform="translate(6.000000, 10.000000)">
            <g id="S">
                <g id="Group" transform="translate(40.000000, 0.000000)">
                    <path d="M9.76633494,95.7232432 C9.76633494,129.950958 26.2278727,163.021946 59.1509482,194.936208 C85.0141695,220.006941 203.234902,289.595822 249.538047,328.286422 C280.40681,354.080155 295.841191,386.088665 295.841191,424.311952" id="Line" stroke="#333333" stroke-width="20" stroke-linecap="square"></path>
                    <path d="M66.6705427,0 C43.1386622,13.1306719 26.9295303,25.258827 18.043147,36.3844652 C9.15676361,47.5101034 3.14238128,64.152415 0,86.3114001 L19.8826233,86.3114001 C21.9368219,67.0721537 25.8310972,52.1378871 31.5654494,41.5086001 C37.2998016,30.8793131 49.0014994,17.0431131 66.6705427,0 Z" id="Line-2" fill="#333333"></path>
                    <path d="M259,500.182107 C280.445577,480.774307 293.598252,465.640905 298.458027,454.781899 C303.317802,443.922894 305.747689,436.995594 305.747689,434 L285.864541,434 C285.864541,448.313975 284.07533,459.874122 280.496907,468.680443 C275.61563,480.693022 268.449995,491.193576 259,500.182107 Z" id="Path-2" fill="#333333"></path>
                </g>
                <g id="Group-2" transform="translate(0.000000, 102.000000)">
                    <path d="M50.7542779,100.2371 C99.5957388,155.114268 123.848725,165.6046 157.950377,187.8724 C244.966926,244.692728 297.549828,263.084569 297.549828,326.752901 C297.549828,382.46727 238.455501,422.383595 157.950377,422.383595 C106.342161,422.383595 53.7801969,403.51686 0.264484018,365.78339" id="Path-3" stroke="#333333" stroke-width="20"></path>
                    <path d="M24.3885647,0 C19.3039803,10.9044092 17.2544672,26.4276043 18.2400251,46.5695852 C19.2255831,66.7115661 27.6034929,86.8411107 43.3737544,106.958219 L58.293505,93.7049099 C47.930728,78.7805209 40.2005689,65.3913467 35.1030276,53.5373872 C30.0054863,41.6834278 26.4339986,23.837632 24.3885647,0 Z" id="Path-4" fill="#333333"></path>
                </g>
                <g id="Group-3" transform="translate(30.000000, 390.000000)">
                    <path d="M0.658466885,50.2223702 C44.8837319,79.1938418 86.2608451,93.6795776 124.789806,93.6795776 C183.584435,93.6795776 217.555968,76.438071 226.704404,41.9550577" id="Line-6" stroke="#333333" stroke-width="20" stroke-linecap="square"></path>
                    <path d="M238.88546,34.912015 L219.613635,29.7678189 C221.125262,24.3932063 222.37826,19.5829514 223.372628,15.3370543 C224.887986,8.86655467 225.9077,4.04952649 226.43177,0.885969769 C232.972416,6.17513266 237.572299,12.4222955 240.231419,19.6274584 C240.552552,23.0098998 240.103899,28.104752 238.88546,34.912015 Z" id="Path-5" fill="#333333"></path>
                </g>
                <g id="Group-4" transform="translate(53.000000, 363.000000)">
                    <path d="M0.176553227,43.5487866 C33.5577117,67.589477 68.6103539,79.6098221 105.33448,79.6098221 C142.058606,79.6098221 163.945729,65.5453343 170.99585,37.4163586" id="Line-7" stroke="#333333" stroke-width="20" stroke-linecap="square"></path>
                    <path d="M163.748623,25.3350784 L183.044052,30.1911768 C184.239528,24.4015865 184.758702,19.2304728 184.601576,14.6778359 C177.262116,8.35474635 170.980937,3.56611097 165.758039,0.311929804 C165.860212,7.40776241 165.792836,11.9467899 165.555909,13.9290124 C165.318983,15.9112348 164.716554,19.7132568 163.748623,25.3350784 Z" id="Path-6" fill="#333333"></path>
                </g>
                <g id="Group-5" transform="translate(89.000000, 2.000000)">
                    <path d="M239.436896,35.737654 C206.923549,12.2067025 166.546705,0.441226735 118.306363,0.441226735 C57.998492,0.441226735 0.108944259,34.942486 0.108944259,88.2486519 C0.108944259,151.383126 56.6185842,178.129328 138.934591,229.35328 C215.609187,277.066671 265.924885,324.982236 272.847879,357.609502" id="Path-7" stroke="#333333" stroke-width="20"></path>
                    <path d="M263.104033,359.412892 L282.578111,355.444285 C285.529054,363.997719 287.500708,374.804648 288.493074,387.865074 C286.305835,400.155927 281.850868,414.726258 275.128173,431.576064 C277.429098,420.106319 277.544786,408.608042 275.475235,397.081232 C274.634216,392.397 270.510482,379.840887 263.104033,359.412892 Z" id="Path-8" fill="#333333"></path>
                </g>
                <g id="Group-6" transform="translate(118.000000, 42.000000)">
                    <path d="M0.410078983,55.741332 C3.44281742,55.741332 10.0771088,56.313037 20.3129531,57.456447 C20.3038762,64.4104406 20.5149308,70.4640452 20.9461169,75.6172608 C21.3773029,80.7704763 22.1420793,87.3957859 23.2404461,95.4931896 C19.4653507,91.7974262 13.09336,85.4673497 4.12447375,76.50296 C0.410078983,69.4657584 0.381307774,57.7030351 0.410078983,55.741332 Z" id="Line-8" fill="#333333"></path>
                    <path d="M179.089573,23.7861018 C164.534905,13.066546 127.580068,0.0957398289 84.8411801,0.689802757 C42.1022922,1.28386568 13.1308791,24.8542641 11.2358095,46.6681485" id="Line-9" stroke="#333333" stroke-width="20" stroke-linecap="square"></path>
                </g>
                <g id="Group-7" transform="translate(162.000000, 83.000000)">
                    <path d="M0.188822251,71.0373501 C1.85673506,69.3993209 8.31334805,67.9689384 19.5586612,66.7462027 C24.196939,79.3223879 30.653552,89.2376007 38.9285002,96.4918411 C19.5586612,85.6216101 3.12021008,74.6319659 0.188822251,71.0373501 Z" id="Line-11" fill="#333333"></path>
                    <path d="M112.083677,15.7391325 C98.8861989,6.69857874 76.5786866,1.48063881 45.1611408,0.0853127157 C-8.26927591,-2.28765603 4.9658527,47.8904132 7.52991132,59.1593892" id="Line-10" stroke="#333333" stroke-width="20" stroke-linecap="square"></path>
                </g>
            </g>
            <g id="4" transform="translate(423.000000, 0.000000)">
                <path d="M345.534267,246.510894 L345.534267,71.3682588 C345.534267,32.1560416 313.746484,0.36825885 274.534267,0.36825885 C259.760367,0.36825885 245.354441,4.97694995 233.323884,13.5521338 L41.186734,150.504335 C9.70550178,172.943639 2.37557122,216.654871 24.8148759,248.136103 C37.9506373,266.564925 59.1855225,277.506148 81.8166893,277.506148 C199.823759,277.506148 317.830828,277.506148 435.837897,277.506148" id="Path-10" stroke="#333333" stroke-width="20"></path>
                <path d="M265.367274,246.77247 L265.367274,96.1917518 C265.367274,95.0871823 264.471844,94.1917518 263.367274,94.1917518 C262.959063,94.1917518 262.560626,94.3166639 262.225475,94.5497118 L61.5628483,234.081249" id="Path-11" stroke="#333333" stroke-width="20"></path>
                <path d="M304.879684,236.900919 L304.879684,69.9903466 C304.879684,54.5263736 292.343657,41.9903466 276.879684,41.9903466 C271.137007,41.9903466 265.533203,43.7560996 260.827881,47.0482541 L70.7066127,180.069653" id="Line-4" stroke="#333333" stroke-width="20" stroke-linecap="square"></path>
                <path d="M425.672182,318 L92,318" id="Line-5" stroke="#333333" stroke-width="20" stroke-linecap="square"></path>
                <path d="M426.041495,359 L88,359" id="Line-5" stroke="#333333" stroke-width="20" stroke-linecap="square"></path>
                <path d="M265.201389,395.5 L265.201389,525.5" id="Line-12" stroke="#333333" stroke-width="15" stroke-linecap="square"></path>
                <path d="M303.200231,396.5 L303.200231,525.5" id="Line-12" stroke="#333333" stroke-width="15" stroke-linecap="square"></path>
                <path d="M345.201389,396.5 L345.201389,525.5" id="Line-12" stroke="#333333" stroke-width="15" stroke-linecap="square"></path>
                <path d="M68.3495181,193.888629 C68.3495181,193.888629 64.554322,188.474145 56.9639296,177.645176 C52.0941659,182.435199 48.7902114,186.813753 47.052066,190.780841 C45.3139205,194.747928 44.2582557,200.940177 43.8850715,209.357588 C60.1947026,199.044948 68.3495181,193.888629 68.3495181,193.888629 Z" id="Path-12" fill="#333333"></path>
                <path d="M55.9407947,225.854425 L50.1576764,229.873398 C54.440489,235.79866 59.7209655,240.252369 65.999106,243.234526 C66.6814863,242.748078 67.113626,242.426062 67.2955248,242.268479 L55.9407947,225.854425 Z" id="Path-13" fill="#333333"></path>
                <path d="M82.1142876,308.036859 L82.0482307,327.922475 C31.4575452,324.79755 4.52749399,305.924729 1.25807716,271.304012 C-5.2314467,266.501934 27.9788668,293.99523 43.783226,299.607374 C54.3194654,303.348804 67.0964859,306.158632 82.1142876,308.036859 Z" id="Path-14" fill="#333333"></path>
                <path d="M78.5827466,348.88905 L78.5166897,368.774666 C37.4579084,368.774666 13.2856785,351.849777 6,318 C-0.00615900456,313.5556 24.4473258,334.847421 40.251685,340.459565 C50.7879244,344.200995 63.5649449,347.010823 78.5827466,348.88905 Z" id="Path-14" fill="#333333"></path>
            </g>
        </g>
    </g>
</svg>